<?xml version="1.0" encoding="UTF-8" standalone="no"?>
<!-- Created with Inkscape (http://www.inkscape.org/) -->

<svg
   xmlns:dc="http://purl.org/dc/elements/1.1/"
   xmlns:cc="http://creativecommons.org/ns#"
   xmlns:rdf="http://www.w3.org/1999/02/22-rdf-syntax-ns#"
   xmlns:svg="http://www.w3.org/2000/svg"
   xmlns="http://www.w3.org/2000/svg"
   xmlns:xlink="http://www.w3.org/1999/xlink"
   xmlns:sodipodi="http://sodipodi.sourceforge.net/DTD/sodipodi-0.dtd"
   xmlns:inkscape="http://www.inkscape.org/namespaces/inkscape"
   width="64"
   height="50"
   id="svg3083"
   version="1.1"
   inkscape:version="0.48.4 r9939"
   sodipodi:docname="button.svg"
   inkscape:export-filename="C:\xul\foxage2ch\source\button.png"
   inkscape:export-xdpi="90"
   inkscape:export-ydpi="90">
  <defs
     id="defs3085">
    <linearGradient
       id="linearGradientM32S">
      <stop
         style="stop-color:#6f7173;stop-opacity:1;"
         offset="0"
         id="stop3841" />
      <stop
         style="stop-color:#757575;stop-opacity:1;"
         offset="1"
         id="stop3843" />
    </linearGradient>
    <linearGradient
       id="linearGradientM32F">
      <stop
         style="stop-color:#939393;stop-opacity:1;"
         offset="0"
         id="stop3833" />
      <stop
         style="stop-color:#858585;stop-opacity:1;"
         offset="1"
         id="stop3835" />
    </linearGradient>
    <linearGradient
       id="linearGradientW32S">
      <stop
         style="stop-color:#656f79;stop-opacity:1;"
         offset="0"
         id="stop3825" />
      <stop
         style="stop-color:#68717d;stop-opacity:1;"
         offset="1"
         id="stop3827" />
    </linearGradient>
    <linearGradient
       id="linearGradientW32F">
      <stop
         style="stop-color:#86919e;stop-opacity:1;"
         offset="0"
         id="stop3817" />
      <stop
         style="stop-color:#78838e;stop-opacity:1;"
         offset="1"
         id="stop3819" />
    </linearGradient>
    <linearGradient
       id="linearGradientM18F">
      <stop
         style="stop-color:#838383;stop-opacity:1;"
         offset="0"
         id="stop3809" />
      <stop
         style="stop-color:#a0a0a0;stop-opacity:1;"
         offset="1"
         id="stop3811" />
    </linearGradient>
    <linearGradient
       id="linearGradientM18S">
      <stop
         style="stop-color:#474747;stop-opacity:1;"
         offset="0"
         id="stop3801" />
      <stop
         style="stop-color:#828282;stop-opacity:1;"
         offset="1"
         id="stop3803" />
    </linearGradient>
    <linearGradient
       id="linearGradientL18S">
      <stop
         style="stop-color:#363228;stop-opacity:1;"
         offset="0"
         id="stop3793" />
      <stop
         style="stop-color:#746f61;stop-opacity:1;"
         offset="1"
         id="stop3795" />
    </linearGradient>
    <linearGradient
       id="linearGradientL18F">
      <stop
         style="stop-color:#666257;stop-opacity:1;"
         offset="0"
         id="stop3785" />
      <stop
         style="stop-color:#837e6f;stop-opacity:1;"
         offset="1"
         id="stop3787" />
    </linearGradient>
    <linearGradient
       id="linearGradientW18S">
      <stop
         style="stop-color:#2a323b;stop-opacity:1;"
         offset="0"
         id="stop3777" />
      <stop
         style="stop-color:#64717e;stop-opacity:1;"
         offset="1"
         id="stop3779" />
    </linearGradient>
    <linearGradient
       id="linearGradientW18F">
      <stop
         style="stop-color:#5c6773;stop-opacity:1;"
         offset="0"
         id="stop3769" />
      <stop
         style="stop-color:#738290;stop-opacity:1;"
         offset="1"
         id="stop3771" />
    </linearGradient>
    <linearGradient
       inkscape:collect="always"
       xlink:href="#linearGradientW18F"
       id="linearGradient3773"
       x1="0"
       y1="1035.3622"
       x2="0"
       y2="1051.3622"
       gradientUnits="userSpaceOnUse" />
    <linearGradient
       inkscape:collect="always"
       xlink:href="#linearGradientW18S"
       id="linearGradient3781"
       x1="0"
       y1="1035.3622"
       x2="0"
       y2="1051.3622"
       gradientUnits="userSpaceOnUse" />
    <linearGradient
       inkscape:collect="always"
       xlink:href="#linearGradientL18F"
       id="linearGradient3789"
       x1="18"
       y1="1035.3622"
       x2="18"
       y2="1051.3622"
       gradientUnits="userSpaceOnUse"
       gradientTransform="translate(-0.50011444,0)" />
    <linearGradient
       inkscape:collect="always"
       xlink:href="#linearGradientL18S"
       id="linearGradient3797"
       x1="18"
       y1="1035.3622"
       x2="18"
       y2="1051.3622"
       gradientUnits="userSpaceOnUse"
       gradientTransform="translate(-0.50011444,0)" />
    <linearGradient
       inkscape:collect="always"
       xlink:href="#linearGradientM18S"
       id="linearGradient3805"
       x1="36"
       y1="1035.3622"
       x2="36"
       y2="1051.3622"
       gradientUnits="userSpaceOnUse" />
    <linearGradient
       inkscape:collect="always"
       xlink:href="#linearGradientM18F"
       id="linearGradient3813"
       x1="36"
       y1="1035.3622"
       x2="36"
       y2="1051.3622"
       gradientUnits="userSpaceOnUse" />
    <linearGradient
       inkscape:collect="always"
       xlink:href="#linearGradientW32F"
       id="linearGradient3821"
       x1="-1.279956"
       y1="1004.3221"
       x2="-1.279956"
       y2="1032.402"
       gradientUnits="userSpaceOnUse"
       gradientTransform="matrix(0.92592821,0,0,0.92592829,1.1851474,75.431971)" />
    <linearGradient
       inkscape:collect="always"
       xlink:href="#linearGradientW32S"
       id="linearGradient3829"
       x1="-1.279956"
       y1="1004.3221"
       x2="-1.279956"
       y2="1032.402"
       gradientUnits="userSpaceOnUse"
       gradientTransform="matrix(0.92592821,0,0,0.92592829,1.1851474,75.431971)" />
    <linearGradient
       inkscape:collect="always"
       xlink:href="#linearGradientM32F"
       id="linearGradient3837"
       x1="30.720039"
       y1="1004.3223"
       x2="30.720039"
       y2="1032.4022"
       gradientUnits="userSpaceOnUse"
       gradientTransform="matrix(0.92592823,0,0,0.92592833,3.555448,75.43168)" />
    <linearGradient
       inkscape:collect="always"
       xlink:href="#linearGradientM32S"
       id="linearGradient3845"
       x1="30.720039"
       y1="1004.3223"
       x2="30.720039"
       y2="1032.4022"
       gradientUnits="userSpaceOnUse"
       gradientTransform="matrix(0.92592823,0,0,0.92592833,3.555448,75.43168)" />
  </defs>
  <sodipodi:namedview
     id="base"
     pagecolor="#ffffff"
     bordercolor="#666666"
     borderopacity="1.0"
     inkscape:pageopacity="0.0"
     inkscape:pageshadow="2"
     inkscape:zoom="16.053533"
     inkscape:cx="26.95208"
     inkscape:cy="21.596479"
     inkscape:document-units="px"
     inkscape:current-layer="layer3"
     showgrid="true"
     inkscape:window-width="1920"
     inkscape:window-height="1017"
     inkscape:window-x="-8"
     inkscape:window-y="-8"
     inkscape:window-maximized="1">
    <inkscape:grid
       type="xygrid"
       id="grid3091"
       empspacing="5"
       visible="true"
       enabled="true"
       snapvisiblegridlinesonly="true" />
  </sodipodi:namedview>
  <metadata
     id="metadata3088">
    <rdf:RDF>
      <cc:Work
         rdf:about="">
        <dc:format>image/svg+xml</dc:format>
        <dc:type
           rdf:resource="http://purl.org/dc/dcmitype/StillImage" />
        <dc:title></dc:title>
      </cc:Work>
    </rdf:RDF>
  </metadata>
  <g
     inkscape:label="base"
     inkscape:groupmode="layer"
     id="layer1"
     transform="translate(0,-1002.3622)"
     sodipodi:insensitive="true">
    <rect
       ry="1.8750285"
       y="1035.8621"
       x="1.5"
       height="15"
       width="15"
       id="rect3791"
       style="opacity:0.98999999;fill:url(#linearGradient3773);fill-opacity:1;fill-rule:nonzero;stroke:url(#linearGradient3781);stroke-width:1;stroke-miterlimit:4;stroke-opacity:1;stroke-dasharray:none;display:inline" />
    <rect
       style="opacity:0.98999999;fill:url(#linearGradient3789);fill-opacity:1;fill-rule:nonzero;stroke:url(#linearGradient3797);stroke-width:1;stroke-miterlimit:4;stroke-opacity:1;stroke-dasharray:none;display:inline"
       id="rect5324"
       width="15"
       height="15"
       x="19.499886"
       y="1035.8621"
       ry="1.8750285" />
    <rect
       ry="1.8750285"
       y="1035.8621"
       x="37.5"
       height="15"
       width="15"
       id="rect5444"
       style="opacity:0.98999999;fill:url(#linearGradient3813);fill-opacity:1;fill-rule:nonzero;stroke:url(#linearGradient3805);stroke-width:0.99977112;stroke-miterlimit:4;stroke-opacity:1;stroke-dasharray:none;display:inline" />
    <rect
       style="opacity:0.98999999;fill:url(#linearGradient3821);fill-opacity:1;fill-rule:nonzero;stroke:url(#linearGradient3829);stroke-width:0.99989462;stroke-miterlimit:4;stroke-opacity:1;stroke-dasharray:none;display:inline"
       id="rect3022"
       width="25"
       height="25"
       x="3.5"
       y="1005.8621"
       ry="3.1250131" />
    <rect
       ry="3.1250131"
       y="1005.8621"
       x="35.5"
       height="25"
       width="25"
       id="rect5525"
       style="opacity:0.98999999;fill:url(#linearGradient3837);fill-opacity:1;fill-rule:nonzero;stroke:url(#linearGradient3845);stroke-width:0.99989462;stroke-miterlimit:4;stroke-opacity:1;stroke-dasharray:none;display:inline" />
  </g>
  <g
     inkscape:groupmode="layer"
     id="layer2"
     inkscape:label="main"
     style="display:inline"
     sodipodi:insensitive="true">
    <g
       transform="matrix(1.1109272,0,0,0.90014899,-4.0764e-8,-9.9999997)"
       style="font-size:48.23165894px;font-style:normal;font-weight:normal;line-height:125%;letter-spacing:0px;word-spacing:0px;fill:#fdfefe;fill-opacity:1;stroke:none;display:inline;font-family:Sans"
       id="text3793">
      <path
         d="m 12.602086,62.211923 -8.101341,0 0,-2.221854 C 5.1920062,59.443028 5.6809802,59.2861 6.2305119,58.798732 6.7800376,58.31137 7.2636725,57.848871 7.6814182,57.411233 8.2234828,56.83933 8.6163585,56.337045 8.8600465,55.904379 c 0.2436768,-0.432655 0.365518,-0.877748 0.365524,-1.335282 -6e-6,-0.517196 -0.1541724,-0.913801 -0.4624997,-1.189818 -0.3083384,-0.275998 -0.7385124,-0.414002 -1.2905234,-0.414011 -0.2834715,9e-6 -0.5507762,0.03482 -0.8019148,0.104435 -0.2511455,0.06963 -0.5060174,0.159149 -0.7646165,0.268548 -0.4770174,0.263297 -0.9627873,0.526863 -1.4052711,0.730576 l 0,-2.314062 c 0.3133045,-0.149182 0.9402827,-0.52386 1.6066823,-0.680524 0.6663939,-0.156642 1.3079251,-0.234969 1.9245955,-0.23498 1.3178694,1.1e-5 2.3162212,0.293425 2.9950582,0.880241 0.678822,0.586838 1.018237,1.412374 1.018246,2.476612 -9e-6,0.656458 -0.154176,1.299233 -0.4625,1.928325 -0.308341,0.629104 -0.820571,1.304204 -1.536693,2.025301 -0.4475863,0.442611 -0.8827334,0.83673 -1.3054423,1.182358 -0.4227198,0.345634 -0.7204219,0.513753 -0.9093955,0.657971 l 4.7707898,0 z"
         style="font-size:15.27740955px;font-variant:normal;font-weight:bold;font-stretch:normal;fill:#fdfefe;font-family:Tahoma;-inkscape-font-specification:Tahoma Bold"
         id="path3838"
         inkscape:connector-curvature="0"
         sodipodi:nodetypes="cccscscccccccccccccsccc" />
    </g>
    <g
       id="g3813"
       style="font-size:84.57616425px;font-style:normal;font-weight:normal;line-height:125%;letter-spacing:0px;word-spacing:0px;fill:#fdfefe;fill-opacity:1;stroke:none;display:inline;font-family:Sans"
       transform="matrix(1.1092385,0,0,0.90151939,14,-27.999999)" />
    <g
       id="g3821"
       style="font-size:48.23165894px;font-style:normal;font-weight:normal;line-height:125%;letter-spacing:0px;word-spacing:0px;fill:#fdfefe;fill-opacity:1;stroke:none;display:inline;font-family:Sans"
       transform="matrix(1.1109272,0,0,0.90014899,18,-9.9999997)">
      <path
         sodipodi:nodetypes="cccscscccccccccccccsccc"
         inkscape:connector-curvature="0"
         id="path3823"
         style="font-size:15.27740955px;font-variant:normal;font-weight:bold;font-stretch:normal;fill:#fdfefe;font-family:Tahoma;-inkscape-font-specification:Tahoma Bold"
         d="m 12.602086,62.211923 -8.101341,0 0,-2.221854 C 5.1920062,59.443028 5.6809802,59.2861 6.2305119,58.798732 6.7800376,58.31137 7.2636725,57.848871 7.6814182,57.411233 8.2234828,56.83933 8.6163585,56.337045 8.8600465,55.904379 c 0.2436768,-0.432655 0.365518,-0.877748 0.365524,-1.335282 -6e-6,-0.517196 -0.1541724,-0.913801 -0.4624997,-1.189818 -0.3083384,-0.275998 -0.7385124,-0.414002 -1.2905234,-0.414011 -0.2834715,9e-6 -0.5507762,0.03482 -0.8019148,0.104435 -0.2511455,0.06963 -0.5060174,0.159149 -0.7646165,0.268548 -0.4770174,0.263297 -0.9627873,0.526863 -1.4052711,0.730576 l 0,-2.314062 c 0.3133045,-0.149182 0.9402827,-0.52386 1.6066823,-0.680524 0.6663939,-0.156642 1.3079251,-0.234969 1.9245955,-0.23498 1.3178694,1.1e-5 2.3162212,0.293425 2.9950582,0.880241 0.678822,0.586838 1.018237,1.412374 1.018246,2.476612 -9e-6,0.656458 -0.154176,1.299233 -0.4625,1.928325 -0.308341,0.629104 -0.820571,1.304204 -1.536693,2.025301 -0.4475863,0.442611 -0.8827334,0.83673 -1.3054423,1.182358 -0.4227198,0.345634 -0.7204219,0.513753 -0.9093955,0.657971 l 4.7707898,0 z" />
    </g>
    <g
       transform="matrix(1.1109272,0,0,0.90014899,36,-9.9999997)"
       style="font-size:48.23165894px;font-style:normal;font-weight:normal;line-height:125%;letter-spacing:0px;word-spacing:0px;fill:#fdfefe;fill-opacity:1;stroke:none;display:inline;font-family:Sans"
       id="g3825">
      <path
         d="m 12.602086,62.211923 -8.101341,0 0,-2.221854 C 5.1920062,59.443028 5.6809802,59.2861 6.2305119,58.798732 6.7800376,58.31137 7.2636725,57.848871 7.6814182,57.411233 8.2234828,56.83933 8.6163585,56.337045 8.8600465,55.904379 c 0.2436768,-0.432655 0.365518,-0.877748 0.365524,-1.335282 -6e-6,-0.517196 -0.1541724,-0.913801 -0.4624997,-1.189818 -0.3083384,-0.275998 -0.7385124,-0.414002 -1.2905234,-0.414011 -0.2834715,9e-6 -0.5507762,0.03482 -0.8019148,0.104435 -0.2511455,0.06963 -0.5060174,0.159149 -0.7646165,0.268548 -0.4770174,0.263297 -0.9627873,0.526863 -1.4052711,0.730576 l 0,-2.314062 c 0.3133045,-0.149182 0.9402827,-0.52386 1.6066823,-0.680524 0.6663939,-0.156642 1.3079251,-0.234969 1.9245955,-0.23498 1.3178694,1.1e-5 2.3162212,0.293425 2.9950582,0.880241 0.678822,0.586838 1.018237,1.412374 1.018246,2.476612 -9e-6,0.656458 -0.154176,1.299233 -0.4625,1.928325 -0.308341,0.629104 -0.820571,1.304204 -1.536693,2.025301 -0.4475863,0.442611 -0.8827334,0.83673 -1.3054423,1.182358 -0.4227198,0.345634 -0.7204219,0.513753 -0.9093955,0.657971 l 4.7707898,0 z"
         style="font-size:15.27740955px;font-variant:normal;font-weight:bold;font-stretch:normal;fill:#fdfefe;font-family:Tahoma;-inkscape-font-specification:Tahoma Bold"
         id="path3827"
         inkscape:connector-curvature="0"
         sodipodi:nodetypes="cccscscccccccccccccsccc" />
    </g>
    <g
       transform="matrix(1.1092385,0,0,0.90151939,-18,-27.999999)"
       style="font-size:84.57616425px;font-style:normal;font-weight:normal;line-height:125%;letter-spacing:0px;word-spacing:0px;fill:#fdfefe;fill-opacity:1;stroke:none;display:inline;font-family:Sans"
       id="text3024">
      <path
         d="m 37.863814,58.789638 -14.42431,0 0,-3.327715 c 1.287105,-0.959257 2.503393,-1.647794 3.526603,-2.502414 1.023198,-0.854608 1.923711,-1.665619 2.701539,-2.433035 1.009306,-1.002855 1.740827,-1.883631 2.194566,-2.64233 0.453718,-0.758676 0.592475,-1.539166 0.592486,-2.341469 -1.1e-5,-0.906924 -0.198955,-1.602388 -0.773051,-2.086394 -0.574116,-0.483975 -1.375085,-0.72597 -2.402912,-0.725986 -0.527814,1.6e-5 -1.025527,0.06106 -1.493139,0.183131 -0.467623,0.122104 -0.942187,0.279074 -1.423689,0.47091 -0.472254,0.200589 -0.917359,0.209433 -1.250707,0.418712 -0.548368,0.240537 -1.070058,0.501705 -1.671696,0.56649 l 0,-3.611527 c 0.583363,-0.261598 2.056605,-1.068996 3.297418,-1.343713 1.240804,-0.274678 2.435313,-0.590932 3.583533,-0.590952 2.453829,2e-5 4.312727,0.693438 5.576699,1.722445 1.263944,1.029043 1.966643,2.476688 1.96666,4.342872 -1.7e-5,1.151126 -0.35779,2.278223 -0.931879,3.381362 -0.574122,1.10316 -1.527878,2.286975 -2.861271,3.551447 -0.833392,0.776136 -1.643621,1.46724 -2.430691,2.073313 -0.787091,0.606083 -1.695009,1.329701 -2.046872,1.582594 l 8.270713,-0.01546 z"
         style="font-size:26.7895546px;font-variant:normal;font-weight:bold;font-stretch:normal;fill:#fdfefe;font-family:Tahoma;-inkscape-font-specification:Tahoma Bold"
         id="path3031"
         inkscape:connector-curvature="0"
         sodipodi:nodetypes="cccscsccccccccccccccsccc" />
    </g>
    <g
       id="g3100"
       style="font-size:84.57616425px;font-style:normal;font-weight:normal;line-height:125%;letter-spacing:0px;word-spacing:0px;fill:#fdfefe;fill-opacity:1;stroke:none;display:inline;font-family:Sans"
       transform="matrix(1.1092385,0,0,0.90151939,14,-27.999999)">
      <path
         sodipodi:nodetypes="cccscsccccccccccccccsccc"
         inkscape:connector-curvature="0"
         id="path3102"
         style="font-size:26.7895546px;font-variant:normal;font-weight:bold;font-stretch:normal;fill:#fdfefe;font-family:Tahoma;-inkscape-font-specification:Tahoma Bold"
         d="m 37.863814,58.789638 -14.42431,0 0,-3.327715 c 1.287105,-0.959257 2.503393,-1.647794 3.526603,-2.502414 1.023198,-0.854608 1.923711,-1.665619 2.701539,-2.433035 1.009306,-1.002855 1.740827,-1.883631 2.194566,-2.64233 0.453718,-0.758676 0.592475,-1.539166 0.592486,-2.341469 -1.1e-5,-0.906924 -0.198955,-1.602388 -0.773051,-2.086394 -0.574116,-0.483975 -1.375085,-0.72597 -2.402912,-0.725986 -0.527814,1.6e-5 -1.025527,0.06106 -1.493139,0.183131 -0.467623,0.122104 -0.942187,0.279074 -1.423689,0.47091 -0.472254,0.200589 -0.917359,0.209433 -1.250707,0.418712 -0.548368,0.240537 -1.070058,0.501705 -1.671696,0.56649 l 0,-3.611527 c 0.583363,-0.261598 2.056605,-1.068996 3.297418,-1.343713 1.240804,-0.274678 2.435313,-0.590932 3.583533,-0.590952 2.453829,2e-5 4.312727,0.693438 5.576699,1.722445 1.263944,1.029043 1.966643,2.476688 1.96666,4.342872 -1.7e-5,1.151126 -0.35779,2.278223 -0.931879,3.381362 -0.574122,1.10316 -1.527878,2.286975 -2.861271,3.551447 -0.833392,0.776136 -1.643621,1.46724 -2.430691,2.073313 -0.787091,0.606083 -1.695009,1.329701 -2.046872,1.582594 l 8.270713,-0.01546 z" />
    </g>
  </g>
  <g
     inkscape:groupmode="layer"
     id="layer3"
     inkscape:label="export"
     style="opacity:0;display:inline">
    <rect
       style="fill:#00ffff;fill-opacity:0.39215686;stroke:none"
       id="rect3040"
       width="18"
       height="18"
       x="0"
       y="32"
       inkscape:export-filename="C:\xul\foxage2ch\chrome\skin\classic\foxage2ch\button18.png"
       inkscape:export-xdpi="90"
       inkscape:export-ydpi="90" />
    <rect
       y="1.7763568e-015"
       x="0"
       height="32"
       width="32"
       id="rect3810"
       style="fill:#00ff00;fill-opacity:0.39215686;stroke:none"
       inkscape:export-filename="C:\xul\foxage2ch\chrome\skin\classic\foxage2ch\button32.png"
       inkscape:export-xdpi="90"
       inkscape:export-ydpi="90" />
    <rect
       inkscape:export-ydpi="90"
       inkscape:export-xdpi="90"
       inkscape:export-filename="C:\xul\foxage2ch\chrome\skin\classic\foxage2ch\button18-linux.png"
       y="32"
       x="18"
       height="18"
       width="18"
       id="rect3042"
       style="fill:#00ffff;fill-opacity:0.39215686;stroke:none" />
    <rect
       style="fill:#00ffff;fill-opacity:0.39215686;stroke:none"
       id="rect3044"
       width="18"
       height="18"
       x="36"
       y="32"
       inkscape:export-filename="C:\xul\foxage2ch\chrome\skin\classic\foxage2ch\button18-mac.png"
       inkscape:export-xdpi="90"
       inkscape:export-ydpi="90" />
    <rect
       inkscape:export-ydpi="90"
       inkscape:export-xdpi="90"
       inkscape:export-filename="C:\xul\foxage2ch\chrome\skin\classic\foxage2ch\button32-mac.png"
       style="fill:#00ff00;fill-opacity:0.39215686;stroke:none"
       id="rect3046"
       width="32"
       height="32"
       x="32"
       y="1.7763568e-015" />
  </g>
</svg>
