<?xml version="1.0" encoding="UTF-8" standalone="no"?>
<!-- Created with Inkscape (http://www.inkscape.org/) -->

<svg
   xmlns:dc="http://purl.org/dc/elements/1.1/"
   xmlns:cc="http://creativecommons.org/ns#"
   xmlns:rdf="http://www.w3.org/1999/02/22-rdf-syntax-ns#"
   xmlns:svg="http://www.w3.org/2000/svg"
   xmlns="http://www.w3.org/2000/svg"
   xmlns:xlink="http://www.w3.org/1999/xlink"
   xmlns:sodipodi="http://sodipodi.sourceforge.net/DTD/sodipodi-0.dtd"
   xmlns:inkscape="http://www.inkscape.org/namespaces/inkscape"
   width="20"
   height="60"
   id="svg3067"
   version="1.1"
   inkscape:version="0.48.0 r9654"
   inkscape:export-filename="C:\xul\foxage2ch@xuldev.org\chrome\skin\classic\foxage2ch\icon-mac.png"
   inkscape:export-xdpi="90"
   inkscape:export-ydpi="90"
   sodipodi:docname="icon-mac.svg">
  <defs
     id="defs3069">
    <linearGradient
       id="linearGradient3858">
      <stop
         style="stop-color:#0f0f0f;stop-opacity:1;"
         offset="0"
         id="stop3860" />
      <stop
         style="stop-color:#0f0f0f;stop-opacity:0;"
         offset="1"
         id="stop3862" />
    </linearGradient>
    <linearGradient
       id="linearGradient3818">
      <stop
         style="stop-color:#5a5a5a;stop-opacity:1;"
         offset="0"
         id="stop3820" />
      <stop
         style="stop-color:#5a5a5a;stop-opacity:0;"
         offset="1"
         id="stop3822" />
    </linearGradient>
    <linearGradient
       id="linearGradient4022">
      <stop
         style="stop-color:#000000;stop-opacity:0.25098041;"
         offset="0"
         id="stop4024" />
      <stop
         style="stop-color:#000000;stop-opacity:0.29803923;"
         offset="1"
         id="stop4026" />
    </linearGradient>
    <linearGradient
       inkscape:collect="always"
       xlink:href="#linearGradient4022"
       id="linearGradient4075"
       gradientUnits="userSpaceOnUse"
       x1="2"
       y1="1014.3622"
       x2="18"
       y2="1030.3622"
       gradientTransform="translate(0,-992.36218)" />
    <filter
       id="filter4106"
       inkscape:label="Drop shadow (2)"
       width="1.5"
       height="1.5"
       x="-.25"
       y="-.25">
      <feGaussianBlur
         id="feGaussianBlur4108"
         in="SourceAlpha"
         stdDeviation="1"
         result="blur" />
      <feColorMatrix
         id="feColorMatrix4110"
         result="bluralpha"
         type="matrix"
         values="1 0 0 0 0 0 1 0 0 0 0 0 1 0 0 0 0 0 0.5 0 " />
      <feOffset
         id="feOffset4112"
         in="bluralpha"
         dx="0"
         dy="0"
         result="offsetBlur" />
      <feMerge
         id="feMerge4114">
        <feMergeNode
           id="feMergeNode4116"
           in="offsetBlur" />
        <feMergeNode
           id="feMergeNode4118"
           in="SourceGraphic" />
      </feMerge>
    </filter>
    <filter
       id="filter4161"
       inkscape:label="Drop shadow (3)"
       width="1.5"
       height="1.5"
       x="-.25"
       y="-.25">
      <feGaussianBlur
         id="feGaussianBlur4163"
         in="SourceAlpha"
         stdDeviation="1"
         result="blur" />
      <feColorMatrix
         id="feColorMatrix4165"
         result="bluralpha"
         type="matrix"
         values="1 0 0 0 0 0 1 0 0 0 0 0 1 0 0 0 0 0 1 0 " />
      <feOffset
         id="feOffset4167"
         in="bluralpha"
         dx="0"
         dy="0"
         result="offsetBlur" />
      <feMerge
         id="feMerge4169">
        <feMergeNode
           id="feMergeNode4171"
           in="offsetBlur" />
        <feMergeNode
           id="feMergeNode4173"
           in="SourceGraphic" />
      </feMerge>
    </filter>
    <filter
       id="filter3810"
       inkscape:label="Darken edges (1)"
       inkscape:menu="Shadows and Glows"
       inkscape:menu-tooltip="Darken the edges with an inner blur"
       color-interpolation-filters="sRGB">
      <feGaussianBlur
         id="feGaussianBlur3812"
         result="result6"
         stdDeviation="1.5" />
      <feComposite
         id="feComposite3814"
         in2="result6"
         operator="atop"
         in="SourceGraphic"
         result="result8" />
      <feComposite
         id="feComposite3816"
         in2="SourceAlpha"
         in="result8"
         operator="atop"
         result="result9" />
    </filter>
    <linearGradient
       inkscape:collect="always"
       xlink:href="#linearGradient3818"
       id="linearGradient3824"
       x1="10"
       y1="994.36218"
       x2="10"
       y2="1010.3622"
       gradientUnits="userSpaceOnUse" />
    <linearGradient
       inkscape:collect="always"
       xlink:href="#linearGradient3858"
       id="linearGradient3864"
       x1="10"
       y1="994.36218"
       x2="10"
       y2="1010.3622"
       gradientUnits="userSpaceOnUse" />
  </defs>
  <sodipodi:namedview
     id="base"
     pagecolor="#ffffff"
     bordercolor="#666666"
     borderopacity="1.0"
     inkscape:pageopacity="0"
     inkscape:pageshadow="2"
     inkscape:zoom="6.2791082"
     inkscape:cx="1.6120527"
     inkscape:cy="31.047149"
     inkscape:document-units="px"
     inkscape:current-layer="layer1"
     showgrid="true"
     inkscape:window-width="1280"
     inkscape:window-height="748"
     inkscape:window-x="-8"
     inkscape:window-y="-8"
     inkscape:window-maximized="1">
    <inkscape:grid
       type="xygrid"
       id="grid3075"
       empspacing="5"
       visible="true"
       enabled="true"
       snapvisiblegridlinesonly="true" />
  </sodipodi:namedview>
  <metadata
     id="metadata3072">
    <rdf:RDF>
      <cc:Work
         rdf:about="">
        <dc:format>image/svg+xml</dc:format>
        <dc:type
           rdf:resource="http://purl.org/dc/dcmitype/StillImage" />
        <dc:title></dc:title>
      </cc:Work>
    </rdf:RDF>
  </metadata>
  <g
     inkscape:label="base"
     inkscape:groupmode="layer"
     id="layer1"
     transform="translate(0,-992.36218)"
     style="display:inline">
    <rect
       inkscape:export-ydpi="90"
       inkscape:export-xdpi="90"
       inkscape:label="#icon20"
       ry="0.03906313"
       y="992.36218"
       x="0"
       height="20"
       width="20"
       id="icon20"
       style="opacity:0;fill:#b4e2ff;fill-opacity:1;fill-rule:nonzero;stroke:none;display:inline">
      <title
         id="title4062">icon20</title>
    </rect>
    <path
       style="fill:url(#linearGradient4075);fill-opacity:1;fill-rule:nonzero;stroke:none;display:inline"
       d="m 4,22 c -1.108,0 -2,0.892 -2,2 l 0,12 c 0,1.108 0.892,2 2,2 l 12,0 c 1.108,0 2,-0.892 2,-2 l 0,-12 c 0,-1.108 -0.892,-2 -2,-2 L 4,22 z m 0.75,1 10.5,0 c 0.9695,0 1.75,0.7805 1.75,1.75 l 0,10.5 C 17,36.2195 16.2195,37 15.25,37 L 4.75,37 C 3.7805,37 3,36.2195 3,35.25 L 3,24.75 C 3,23.7805 3.7805,23 4.75,23 z"
       transform="translate(0,992.36218)"
       id="rect3236"
       inkscape:connector-curvature="0" />
    <path
       style="fill:#ffffff;fill-opacity:1;fill-rule:nonzero;stroke:none;display:inline;filter:url(#filter4106)"
       d="M 4.75,23 C 3.7805,23 3,23.7805 3,24.75 l 0,10.5 C 3,36.2195 3.7805,37 4.75,37 l 10.5,0 C 16.2195,37 17,36.2195 17,35.25 l 0,-10.5 C 17,23.7805 16.2195,23 15.25,23 l -10.5,0 z m 5.1875,1.75 c 1.464057,1.1e-5 2.55836,0.284277 3.3125,0.8125 0.754121,0.528241 1.12499,1.260777 1.125,2.21875 -10e-6,0.590911 -0.157473,1.183723 -0.5,1.75 -0.342544,0.566288 -0.923192,1.163405 -1.71875,1.8125 -0.497237,0.398415 -0.967901,0.751382 -1.4375,1.0625 -0.469611,0.311122 -0.8213141,0.526432 -1.03125,0.65625 l 5.21875,0 0,1.90625 -9.0625,0 0,-1.65625 c 0.7679409,-0.492418 1.4520104,-0.936296 2.0625,-1.375 0.610483,-0.438698 1.1609151,-0.856061 1.625,-1.25 0.602194,-0.514798 1.04178,-0.985535 1.3125,-1.375 0.270708,-0.389453 0.406243,-0.775652 0.40625,-1.1875 -7e-6,-0.465553 -0.157471,-0.814044 -0.5,-1.0625 -0.342542,-0.24844 -0.824256,-0.374992 -1.4375,-0.375 -0.3149162,8e-6 -0.6272533,0.03109 -0.90625,0.09375 C 8.1272456,26.84393 7.8497847,26.901524 7.5625,27 7.2807341,27.102968 7.0426393,27.205071 6.84375,27.3125 l -0.4375,0.25 -0.25,0 0,-2.1875 C 6.5043086,25.240713 7.0409286,25.109771 7.78125,24.96875 8.5215651,24.827749 9.252424,24.750011 9.9375,24.75 z"
       transform="translate(0,992.36218)"
       id="rect3242"
       inkscape:connector-curvature="0" />
    <path
       style="fill:#7f7f7f;fill-opacity:1;fill-rule:nonzero;stroke:none;display:inline;filter:url(#filter4161)"
       d="m 4,42 c -1.108,0 -2,0.892 -2,2 l 0,12 c 0,1.108 0.892,2 2,2 l 12,0 c 1.108,0 2,-0.892 2,-2 l 0,-12 c 0,-1.108 -0.892,-2 -2,-2 L 4,42 z m 5.9375,2.75 c 1.464057,1e-5 2.558361,0.284278 3.3125,0.8125 0.754122,0.528241 1.12499,1.260778 1.125,2.21875 -10e-6,0.59091 -0.157474,1.183723 -0.5,1.75 -0.342545,0.566288 -0.923192,1.163405 -1.71875,1.8125 -0.497236,0.398416 -0.967901,0.751383 -1.4375,1.0625 -0.469611,0.311122 -0.8213141,0.526432 -1.03125,0.65625 l 5.21875,0 0,1.90625 -9.0625,0 0,-1.65625 c 0.7679408,-0.492418 1.4520103,-0.936296 2.0625,-1.375 0.610483,-0.438698 1.160915,-0.85606 1.625,-1.25 0.602194,-0.514798 1.04178,-0.985535 1.3125,-1.375 0.270707,-0.389453 0.406243,-0.775651 0.40625,-1.1875 -7e-6,-0.465553 -0.157471,-0.814044 -0.5,-1.0625 -0.342541,-0.24844 -0.824256,-0.374992 -1.4375,-0.375 -0.3149162,8e-6 -0.6272533,0.03109 -0.90625,0.09375 C 8.1272456,46.84393 7.8497847,46.901524 7.5625,47 7.2807341,47.102968 7.0426392,47.205071 6.84375,47.3125 l -0.4375,0.25 -0.25,0 0,-2.1875 C 6.5043085,45.240713 7.0409285,45.109771 7.78125,44.96875 8.5215651,44.827749 9.252424,44.75001 9.9375,44.75 z"
       transform="translate(0,992.36218)"
       id="rect4120"
       inkscape:connector-curvature="0" />
    <rect
       style="opacity:0;fill:#b4e2ff;fill-opacity:1;fill-rule:nonzero;stroke:none;display:inline"
       id="rect4122"
       width="20"
       height="20"
       x="0"
       y="1032.3622"
       ry="0.03906313"
       inkscape:label="#icon20"
       inkscape:export-xdpi="90"
       inkscape:export-ydpi="90">
      <title
         id="title4124">icon20</title>
    </rect>
    <rect
       style="fill:#5a5a5a;fill-opacity:1;fill-rule:nonzero;stroke:none;display:inline"
       id="rect4223"
       width="16"
       height="16"
       x="22"
       y="994.36218"
       ry="2" />
    <rect
       style="opacity:0;fill:#b4e2ff;fill-opacity:1;fill-rule:nonzero;stroke:none;display:inline"
       id="rect4225"
       width="20"
       height="20"
       x="20"
       y="992.36218"
       ry="0.03906313"
       inkscape:label="#icon20"
       inkscape:export-xdpi="90"
       inkscape:export-ydpi="90">
      <title
         id="title4227">icon20</title>
    </rect>
    <path
       style="fill:#5a5a5a;fill-opacity:1;fill-rule:nonzero;stroke:none;display:inline"
       d="m 4,994.36218 c -1.108,0 -2,0.892 -2,2 l 0,12.00002 c 0,1.108 0.892,2 2,2 l 12,0 c 1.108,0 2,-0.892 2,-2 l 0,-12.00002 c 0,-1.108 -0.892,-2 -2,-2 l -12,0 z m 5.9375,2.75 c 1.464057,1e-5 2.558361,0.28428 3.3125,0.8125 0.754122,0.52824 1.12499,1.26078 1.125,2.21872 -10e-6,0.5909 -0.157474,1.1838 -0.5,1.75 -0.342545,0.5663 -0.923192,1.1634 -1.71875,1.8125 -0.497236,0.3984 -0.967901,0.7514 -1.4375,1.0625 -0.469611,0.3112 -0.8213141,0.5265 -1.03125,0.6563 l 5.21875,0 0,1.9062 -9.0625,0 0,-1.6562 c 0.7679408,-0.4924 1.4520103,-0.9363 2.0625,-1.375 0.610483,-0.4387 1.160915,-0.8561 1.625,-1.25 0.602194,-0.5148 1.04178,-0.9856 1.3125,-1.375 0.270707,-0.3895 0.406243,-0.7757 0.40625,-1.1875 -7e-6,-0.4656 -0.157471,-0.81406 -0.5,-1.06252 -0.342541,-0.24844 -0.824256,-0.37499 -1.4375,-0.375 -0.3149162,1e-5 -0.6272533,0.0311 -0.90625,0.0937 -0.2790044,0.0627 -0.5564653,0.12027 -0.84375,0.21875 -0.2817659,0.10297 -0.5198608,0.20507 -0.71875,0.3125 l -0.4375,0.25 -0.25,0 0,-2.1875 c 0.3480585,-0.13429 0.8846785,-0.26523 1.625,-0.40625 0.7403151,-0.141 1.471174,-0.21874 2.15625,-0.21875 z"
       id="rect3797"
       inkscape:connector-curvature="0" />
    <rect
       inkscape:export-ydpi="90"
       inkscape:export-xdpi="90"
       inkscape:label="#icon20"
       ry="0.03906313"
       y="992.36218"
       x="0"
       height="20"
       width="20"
       id="rect3799"
       style="opacity:0;fill:#b4e2ff;fill-opacity:1;fill-rule:nonzero;stroke:none;display:inline">
      <title
         id="title3801">icon20</title>
    </rect>
    <path
       inkscape:connector-curvature="0"
       id="path3848"
       d="m 4,994.36218 c -1.108,0 -2,0.892 -2,2 l 0,12.00002 c 0,1.108 0.892,2 2,2 l 12,0 c 1.108,0 2,-0.892 2,-2 l 0,-12.00002 c 0,-1.108 -0.892,-2 -2,-2 l -12,0 z m 5.9375,2.75 c 1.464057,1e-5 2.558361,0.28428 3.3125,0.8125 0.754122,0.52824 1.12499,1.26078 1.125,2.21872 -10e-6,0.5909 -0.157474,1.1838 -0.5,1.75 -0.342545,0.5663 -0.923192,1.1634 -1.71875,1.8125 -0.497236,0.3984 -0.967901,0.7514 -1.4375,1.0625 -0.469611,0.3112 -0.8213141,0.5265 -1.03125,0.6563 l 5.21875,0 0,1.9062 -9.0625,0 0,-1.6562 c 0.7679408,-0.4924 1.4520103,-0.9363 2.0625,-1.375 0.610483,-0.4387 1.160915,-0.8561 1.625,-1.25 0.602194,-0.5148 1.04178,-0.9856 1.3125,-1.375 0.270707,-0.3895 0.406243,-0.7757 0.40625,-1.1875 -7e-6,-0.4656 -0.157471,-0.81406 -0.5,-1.06252 -0.342541,-0.24844 -0.824256,-0.37499 -1.4375,-0.375 -0.3149162,1e-5 -0.6272533,0.0311 -0.90625,0.0937 -0.2790044,0.0627 -0.5564653,0.12027 -0.84375,0.21875 -0.2817659,0.10297 -0.5198608,0.20507 -0.71875,0.3125 l -0.4375,0.25 -0.25,0 0,-2.1875 c 0.3480585,-0.13429 0.8846785,-0.26523 1.625,-0.40625 0.7403151,-0.141 1.471174,-0.21874 2.15625,-0.21875 z"
       style="fill:url(#linearGradient3864);fill-opacity:1;fill-rule:nonzero;stroke:none;display:inline;filter:url(#filter3810)" />
  </g>
  <g
     inkscape:groupmode="layer"
     id="layer2"
     inkscape:label="main"
     style="display:inline"
     sodipodi:insensitive="true">
    <g
       transform="scale(1.1109272,0.90014899)"
       style="font-size:48.23165894px;font-style:normal;font-weight:normal;line-height:125%;letter-spacing:0px;word-spacing:0px;fill:#3e9ade;fill-opacity:1;stroke:none;display:inline;font-family:Sans"
       id="text4030" />
    <text
       xml:space="preserve"
       style="font-size:48.23165894px;font-style:normal;font-weight:normal;line-height:125%;letter-spacing:0px;word-spacing:0px;fill:#ffffff;fill-opacity:1;stroke:none;display:inline;font-family:Sans"
       x="22.145708"
       y="16.614744"
       id="text4229"
       sodipodi:linespacing="125%"
       transform="scale(1.1109272,0.90014899)"><tspan
         sodipodi:role="line"
         id="tspan4231"
         x="22.145708"
         y="16.614744"
         style="font-size:15.27740955px;font-style:normal;font-variant:normal;font-weight:bold;font-stretch:normal;fill:#ffffff;fill-opacity:1;font-family:Tahoma;-inkscape-font-specification:Tahoma Bold">2</tspan></text>
  </g>
</svg>
